pl05
version=1
nRows=5
nColumns=43
inDegrees=yes
endheader
time	pelvis_tilt	pelvis_list	pelvis_rotation	pelvis_tx	pelvis_ty	pelvis_tz	hip_flexion_r	hip_adduction_r	hip_rotation_r	knee_angle_r	ankle_angle_r	subtalar_angle_r	mtp_angle_r	hip_flexion_l	hip_adduction_l	hip_rotation_l	knee_angle_l	ankle_angle_l	subtalar_angle_l	mtp_angle_l	lumbar_extension	lumbar_bending	lumbar_rotation	neck_flexion	neck_lateral_bending	neck_rotation	arm_flex_r	arm_add_r	arm_rot_r	elbow_flex_r	pro_sup_r	wrist_flex_r	wrist_dev_r	hand_finger_flex_r	arm_flex_l	arm_add_l	arm_rot_l	elbow_flex_l	pro_sup_l	wrist_flex_l	wrist_dev_l	hand_finger_flex_l
      2.61250000	     -2.57982148	    -14.30098037	     86.86155234	      0.02089970	      1.60675915	      1.70895641	     99.27770803	     -7.43037539	     15.38059182	   -139.88305887	     20.05265699	     15.60856752	     22.87230424	     95.40468904	    -10.61951686	     13.99833677	   -141.34292053	     17.61711159	     22.11471670	     38.75007491	    -54.40002733	     -2.66531257	     -1.59592071	     35.13869443	      4.58079284	     -0.31334555	      9.89688368	    -29.61901189	     -9.21157745	     74.54543776	     93.73390346	     -0.40953294	     -7.99553713	     23.23906013	     18.03052086	    -27.72175935	    -10.97941303	     75.55043440	     89.80991818	    -13.21662512	     -2.92507552	     31.82504367
      2.61500000	     -2.53896969	    -14.07053111	     86.87807236	      0.02078613	      1.60660820	      1.70857557	     99.03699335	     -7.41533259	     15.40435069	   -139.96611171	     19.97840870	     15.51933783	     22.86549056	     95.16085809	    -10.56936041	     14.05405983	   -141.44162795	     17.62103796	     22.03308475	     38.78466888	    -54.57612393	     -2.68696344	     -1.47975570	     34.75070181	      4.66722715	     -0.46282596	     10.93543653	    -29.91943825	     -8.35180808	     74.50536442	     93.02040395	     -1.22296425	     -7.66213290	     22.39504685	     19.51800468	    -27.86657523	     -9.89163347	     74.96211227	     89.83545876	    -13.58776516	     -3.10662243	     31.65088600
      2.61750000	     -2.52277881	    -14.20571874	     86.88406358	      0.02066097	      1.60602282	      1.70826814	     99.18241855	     -7.36054901	     15.46657838	   -140.01867925	     20.02347506	     15.55750159	     22.86514498	     95.32583001	    -10.49800745	     14.13253998	   -141.51710847	     17.69352983	     22.05861439	     38.79080222	    -54.48408419	     -2.67925392	     -1.49631039	     35.13155521	      4.59703948	     -0.46077866	     12.08386871	    -29.84149841	     -7.96841949	     74.40156395	     93.06149542	     -1.25950505	     -7.45277191	     22.27172855	     20.69939717	    -27.78287398	     -9.50323957	     74.70555553	     89.87147125	    -13.54739833	     -2.95328468	     31.61703770
      2.62000000	     -2.48986007	    -14.07899777	     86.92940158	      0.02043190	      1.60569614	      1.70787961	     99.06744089	     -7.44465415	     15.45699183	   -140.10395674	     19.95498511	     15.49897822	     22.85679646	     95.20352457	    -10.45366068	     14.13463150	   -141.62625698	     17.68864848	     21.99624201	     38.81847194	    -54.55790526	     -2.66753670	     -1.45608929	     35.00331466	      4.65851277	     -0.57305017	     13.24260196	    -30.07488268	     -7.16503431	     74.24412544	     92.72871862	     -1.74962803	     -7.12117598	     21.52137641	     22.10633083	    -27.96386686	     -8.49235674	     74.16936542	     89.97758098	    -13.72616480	     -3.00827971	     31.42534177
      2.62250000	     -2.47153199	    -14.20127916	     86.91814826	      0.02017191	      1.60508520	      1.70752986	     99.21266128	     -7.41295726	     15.48778462	   -140.15581953	     20.00070110	     15.52625387	     22.85570005	     95.33851328	    -10.38374784	     14.16020149	   -141.73241226	     17.75730057	     22.01702241	     38.82498836	    -54.45177947	     -2.65013374	     -1.46510926	     35.37971604	      4.60838585	     -0.56769604	     14.44039895	    -30.00133479	     -6.76773614	     74.08752646	     92.77712408	     -1.78209868	     -6.90584230	     21.36444559	     23.29199269	    -27.84573098	     -8.07684687	     73.85368507	     90.02565719	    -13.69027020	     -2.85288832	     31.36337421
